<svg xmlns="http://www.w3.org/2000/svg" viewBox="0 0 760 620" width="760" height="620" font-family="Lato, 'Segoe UI', Helvetica, Arial, sans-serif"><defs>
<linearGradient id="g" x1="0" y1="0" x2="1" y2="1"><stop offset="0" stop-color="#169FC2"/><stop offset="1" stop-color="#0B5C82"/></linearGradient>
<linearGradient id="g2" x1="0" y1="0" x2="1" y2="1"><stop offset="0" stop-color="#5B6B7A"/><stop offset="1" stop-color="#34414E"/></linearGradient>
<marker id="a" viewBox="0 0 10 10" refX="8" refY="5" markerWidth="7" markerHeight="7" orient="auto-start-reverse"><path d="M0,0 L10,5 L0,10 z" fill="#0B5C82"/></marker>
<marker id="ag" viewBox="0 0 10 10" refX="8" refY="5" markerWidth="7" markerHeight="7" orient="auto-start-reverse"><path d="M0,0 L10,5 L0,10 z" fill="#2E8B57"/></marker>
</defs><rect width="760" height="620" rx="16" fill="#FFFFFF"/><circle cx="380" cy="320" r="210" fill="none" stroke="#E6E6E3" stroke-width="46"/><path d="M 468.7 129.7 A 210 210 0 0 1 533.6 176.8" fill="none" stroke="#0B5C82" stroke-width="3" marker-end="url(#a)"/><path d="M 588.4 345.6 A 210 210 0 0 1 563.7 421.8" fill="none" stroke="#0B5C82" stroke-width="3" marker-end="url(#a)"/><path d="M 420.1 526.1 A 210 210 0 0 1 339.9 526.1" fill="none" stroke="#0B5C82" stroke-width="3" marker-end="url(#a)"/><path d="M 196.3 421.8 A 210 210 0 0 1 171.6 345.6" fill="none" stroke="#0B5C82" stroke-width="3" marker-end="url(#a)"/><path d="M 226.4 176.8 A 210 210 0 0 1 291.3 129.7" fill="none" stroke="#0B5C82" stroke-width="3" marker-end="url(#a)"/><rect x="298.0" y="70.0" width="164" height="80" rx="14" fill="url(#g)"/><text x="380.0" y="98.6" font-size="19" fill="#FFFFFF" font-weight="600" text-anchor="middle" dominant-baseline="middle">Plan and</text><text x="380.0" y="121.39999999999999" font-size="19" fill="#FFFFFF" font-weight="600" text-anchor="middle" dominant-baseline="middle">prepare</text><rect x="497.7" y="215.1" width="164" height="80" rx="14" fill="url(#g)"/><text x="579.7218684219822" y="243.70643118126102" font-size="19" fill="#FFFFFF" font-weight="600" text-anchor="middle" dominant-baseline="middle">Detect and</text><text x="579.7218684219822" y="266.506431181261" font-size="19" fill="#FFFFFF" font-weight="600" text-anchor="middle" dominant-baseline="middle">report</text><rect x="421.4" y="449.9" width="164" height="80" rx="14" fill="url(#g)"/><text x="503.4349029814193" y="478.493568818739" font-size="19" fill="#FFFFFF" font-weight="600" text-anchor="middle" dominant-baseline="middle">Assess and</text><text x="503.4349029814193" y="501.293568818739" font-size="19" fill="#FFFFFF" font-weight="600" text-anchor="middle" dominant-baseline="middle">decide</text><rect x="174.6" y="449.9" width="164" height="80" rx="14" fill="url(#g)"/><text x="256.5650970185807" y="489.89356881873897" font-size="19" fill="#FFFFFF" font-weight="600" text-anchor="middle" dominant-baseline="middle">Respond</text><rect x="98.3" y="215.1" width="164" height="80" rx="14" fill="url(#g)"/><text x="180.27813157801774" y="243.70643118126108" font-size="19" fill="#FFFFFF" font-weight="600" text-anchor="middle" dominant-baseline="middle">Learn</text><text x="180.27813157801774" y="266.50643118126106" font-size="19" fill="#FFFFFF" font-weight="600" text-anchor="middle" dominant-baseline="middle">lessons</text><text x="380" y="306.0" font-size="22" fill="#34414E" font-weight="700" text-anchor="middle" dominant-baseline="middle">ISO/IEC 27035-1</text><text x="380" y="336.0" font-size="16" fill="#34414E" font-weight="400" text-anchor="middle" dominant-baseline="middle">incident management process</text></svg>